# xmcd
#
# Track frame offsets:
#	150
#	12412
#	25900
#	39512
#	51787
#	63650
#	77262
#	90737
#	102825
#	116750
#
# Disc length: 1740 seconds
#
# Revision: 1
# Processed by: cddbd v1.5.2PL0 Copyright (c) Steve Scherf et al.
# Submitted via: audiograbber 1.83.01
#
DISCID=7706ca0a
DTITLE=John Lee Hooker - King of the blues
DYEAR=1900
DGENRE=
TTITLE0=Hug and squeeze you
TTITLE1=I love you baby
TTITLE2=The syndicate
TTITLE3=Boogie woogie all night long
TTITLE4=Good rockin' mama
TTITLE5=Driftin' from door to door
TTITLE6=She left me on my bended knee
TTITLE7=Let your daddy ride
TTITLE8=Turn over a new leaf
TTITLE9=Don't you remember me
EXTD=T.K.O. RECORDS
EXTT0=
EXTT1=
EXTT2=
EXTT3=
EXTT4=
EXTT5=
EXTT6=
EXTT7=
EXTT8=
EXTT9=
PLAYORDER=
